<?xml version="1.0" standalone="no"?>
<!DOCTYPE svg PUBLIC "-//W3C//DTD SVG 1.1//EN" "http://www.w3.org/Graphics/SVG/1.1/DTD/svg11.dtd" >
<svg xmlns="http://www.w3.org/2000/svg">
<metadata>Generated by IcoMoon</metadata>
<defs>
<font id="icomoon" horiz-adv-x="1024">
<font-face units-per-em="1024" ascent="960" descent="-64" />
<missing-glyph horiz-adv-x="1024" />
<glyph unicode="&#x20;" horiz-adv-x="512" d="" />
<glyph unicode="&#xe900;" glyph-name="nav_coctail" d="M361.101 816.096l42.499-207.381h-55.335c-5.523 0-10.81-2.285-14.606-6.317-3.786-4.010-5.757-9.431-5.421-14.943l30.892-522.622c0.359-28.787 23.882-52.11 52.76-52.11h187.837c28.876 0 52.411 23.323 52.769 52.11l30.894 522.622c0.313 5.511-1.646 10.932-5.445 14.943-3.785 4.033-9.073 6.317-14.606 6.317h-218.762l-45.982 224.452c-1.176 5.736-4.783 10.642-9.868 13.509l-179.827 100.478c-9.667 5.399-21.898 1.95-27.319-7.729-5.411-9.678-1.938-21.91 7.74-27.309l171.783-96.019zM484.103 215.781c1.938-9.519 10.317-16.062 19.636-16.062 1.343 0 2.699 0.134 4.055 0.426 10.866 2.217 17.855 12.815 15.636 23.679l-70.636 344.745h189.258l-3.248-54.808h-135.738c-11.088 0-20.073-8.984-20.073-20.073 0-11.068 8.984-20.073 20.073-20.073h133.363l-24.036-406.923c-0.023-0.403-0.046-0.784-0.046-1.188 0-6.967-5.667-12.635-12.623-12.635h-187.837c-6.956 0-12.625 5.667-12.625 12.635 0 0.404-0.010 0.785-0.033 1.188l-24.062 406.923h19.523c11.079 0 20.073 9.006 20.073 20.073 0 11.089-8.994 20.073-20.073 20.073h-21.898l-3.225 54.808h42.252l72.282-352.786zM569.714 312.897c29.483 0 53.454 23.992 53.454 53.475 0 29.481-23.971 53.453-53.454 53.453-29.481 0-53.453-23.971-53.453-53.453s23.971-53.475 53.453-53.475zM396.609 202.966c0-18.034 14.674-32.707 32.708-32.707s32.707 14.673 32.707 32.707-14.673 32.707-32.707 32.707-32.708-14.671-32.708-32.707zM547.424 67.721c34.836 0 63.175 28.341 63.175 63.177s-28.338 63.175-63.175 63.175-63.177-28.34-63.177-63.175c0-34.836 28.341-63.177 63.177-63.177zM547.424 153.926c12.702 0 23.028-10.326 23.028-23.028 0-12.704-10.326-23.031-23.028-23.031-12.704 0-23.031 10.327-23.031 23.031 0 12.702 10.328 23.028 23.031 23.028zM824.903-13.556h-48.838c-11.089 0-20.073-8.983-20.073-20.072s8.983-20.075 20.073-20.075h48.838c11.088 0 20.073 8.984 20.073 20.075 0 11.088-8.984 20.072-20.073 20.072zM692.044-13.556h-485.959c-11.078 0-20.073-8.983-20.073-20.072s8.995-20.075 20.073-20.075h485.959c11.079 0 20.075 8.984 20.075 20.075-0.001 11.088-8.997 20.072-20.075 20.072z" />
<glyph unicode="&#xe901;" glyph-name="nav_check_circle" d="M334.88 530.080l-60.48-60.48 194.4-194.4 432 432-60.48 60.48-371.52-371.52-133.92 133.92zM857.6 448c0-190.080-155.52-345.6-345.6-345.6s-345.6 155.52-345.6 345.6c0 190.080 155.52 345.6 345.6 345.6 34.56 0 64.8-4.32 95.040-12.96l69.12 69.12c-51.84 17.28-108 30.24-164.16 30.24-237.6 0-432-194.4-432-432s194.4-432 432-432c237.6 0 432 194.4 432 432h-86.4z" />
<glyph unicode="&#xe902;" glyph-name="nav_food" d="M944 288h-86.112c-1.44 7.648-3.2 15.136-5.12 22.592l153.568 76.768c15.808 7.904 22.176 27.136 14.304 42.944-7.936 15.808-27.072 22.144-42.944 14.304l-146.496-73.216c-55.872 120.576-177.76 204.608-319.2 204.608-172.224 0-315.68-124.416-345.888-288h-86.112c-44.096 0-80-35.872-80-80 0-15.68 5.76-30.816 16.16-42.528l111.84-125.824v-23.648c0-44.128 35.904-80 80-80h608c44.128 0 80 35.872 80 80v23.648l111.808 125.824c10.432 11.712 16.192 26.848 16.192 42.528 0 44.128-35.872 80-80 80zM825.568 288h-17.984l15.936 8c0.608-2.688 1.472-5.28 2.048-8zM512 544c128.928 0 240-76.8 290.624-186.912l-28.512-14.24c-45.312 99.68-145.472 169.152-262.112 169.152-137.024 0-251.488-95.776-280.64-224h-32.896c29.728 145.888 159.008 256 313.536 256zM658.432 288c-24.736 56.416-80.992 96-146.432 96s-121.664-39.584-146.432-96h-34.368c26.432 74.432 97.376 128 180.8 128 78.88 0 146.816-47.872 176.256-116.064l-23.808-11.936h-6.016zM512 320c-28.256 0-53.44-12.512-71.040-32h-39.168c22.208 38.048 63.040 64 110.208 64 47.136 0 88-25.952 110.176-64h-39.2c-17.536 19.488-42.72 32-70.976 32zM512 448c-101.28 0-186.944-67.584-214.56-160h-33.024c28.544 110.208 128.544 192 247.584 192 103.872 0 193.376-62.336 233.44-151.488l-28.576-14.272c-34.816 78.624-113.504 133.76-204.864 133.76zM832 64v-48c0-8.832-7.2-16-16-16h-608c-8.832 0-16 7.168-16 16v48l-128 144c0 8.832 7.168 16 16 16h864c8.8 0 16-7.168 16-16l-128-144zM255.264 585.216c0.096-0.192 0.16-0.384 0.256-0.576 0 0 0.032 0 0.064 0 2.656-5.12 7.968-8.64 14.176-8.64 8.864 0 16.064 7.232 16.064 16.096 0 1.376-0.224 2.72-0.576 4 0.064 0.224 0.064 0.416 0 0.64-12 28.224-0.608 59.2 13.408 92.544 15.136 36.032 31.36 76.032 13.504 116.704-2.272 5.856-7.936 10.016-14.592 10.016-8.672 0-15.68-7.040-15.68-15.68 0-1.92 0.384-3.712 1.024-5.408 0-0.064 0-0.128 0.032-0.192 0.032-0.096 0.064-0.192 0.096-0.288 0.064-0.128 0.096-0.256 0.16-0.384 12.928-29.088 0.416-58.912-13.696-92.576-14.912-35.488-31.424-74.816-14.816-114.912 0.192-0.48 0.352-0.896 0.576-1.344zM644.928 589.888c0.128-0.192 0.192-0.384 0.256-0.576h0.064c2.688-5.12 8-8.672 14.176-8.672 8.864 0 16.128 7.232 16.128 16.096 0 1.376-0.256 2.72-0.576 4 0.064 0.224 0.064 0.416-0.064 0.64-11.936 28.224-0.576 59.2 13.44 92.544 15.136 36.032 31.36 76.032 13.504 116.704-2.304 5.888-7.936 10.016-14.624 10.016-8.64 0-15.68-7.040-15.68-15.68 0-1.92 0.448-3.712 1.056-5.408 0-0.064 0-0.128 0-0.192 0.064-0.096 0.064-0.192 0.128-0.288 0.064-0.128 0.128-0.256 0.128-0.384 12.928-29.088 0.448-58.912-13.696-92.576-14.88-35.488-31.36-74.848-14.752-114.944 0.16-0.416 0.32-0.864 0.512-1.28zM480.608 729.216c0.096-0.192 0.16-0.384 0.256-0.576 0 0 0.032 0 0.064 0 2.688-5.12 8-8.672 14.176-8.672 8.864 0 16.064 7.232 16.064 16.096 0 1.376-0.224 2.72-0.576 4 0.064 0.224 0.064 0.416 0 0.64-12 28.224-0.608 59.2 13.408 92.544 15.136 36.032 31.36 76.032 13.504 116.704-2.304 5.888-7.936 10.048-14.624 10.048-8.64 0-15.68-7.040-15.68-15.68 0-1.92 0.384-3.712 1.024-5.408 0-0.064 0-0.128 0.032-0.192 0.032-0.096 0.064-0.192 0.096-0.288 0.032-0.128 0.096-0.256 0.128-0.384 12.928-29.088 0.416-58.912-13.696-92.576-14.912-35.488-31.424-74.848-14.784-114.944 0.224-0.448 0.384-0.864 0.608-1.312z" />
<glyph unicode="&#xe903;" glyph-name="nav_megaphone" d="M800 960c-65.696 0-117.312-45.12-154.368-114.752l-0.672 0.384c-53.824-105.376-133.952-173.632-221.728-173.632h-295.232c-71.776 0-128-70.304-128-160 0-89.76 56.224-160 128-160 35.296-0.128 63.84-28.672 63.84-64v-288c0-35.36 28.672-64 64-64h128c35.328 0 64 28.64 64 64v32c0 32-32 46.304-32 64v224c0 0.736 0.512 1.248 0.576 1.984 0.32 4.576 1.568 8.8 3.584 12.64 0.576 1.056 1.184 1.888 1.888 2.816 2.56 3.808 5.792 6.944 9.728 9.376 0.192 0.128 0.256 0.32 0.448 0.448 0.128 0 0.224 0.128 0.352 0.128 2.56 1.44 5.632 1.76 8.512 2.56 80.768-8.576 153.888-73.76 204.064-171.936l0.8 0.384c37.088-69.408 88.576-114.4 154.208-114.4 147.072 0 224 225.376 224 448s-76.928 448-224 448zM640 512c0 33.184 1.952 65.248 5.248 96h90.752c35.328 0 64-43.008 64-96 0-53.056-28.672-96-64-96h-90.752c-3.296 30.752-5.248 62.752-5.248 96zM64 512c0 52.992 28.672 96 64 96h224.448c-19.84-23.328-32.448-57.184-32.448-96 0-38.88 12.608-72.736 32.448-96h-224.448c-35.328 0-64 42.944-64 96zM383.84 0h-128v288c0 23.328-6.24 45.12-17.184 64h22.336v-0.384h96.256c-3.424-9.952-5.408-20.512-5.408-31.616v-224c0-30.816 17.216-51.328 27.488-63.552 1.408-1.696 3.072-3.424 4.512-5.312v-27.136zM423.232 415.616h-7.232v0.384c-35.328 0-64 42.944-64 96 0 52.992 28.672 96 64 96h7.232c60.352 0 116.864 23.744 166.592 64.576-9.152-51.52-13.824-106.080-13.824-160.576 0-54.688 4.672-109.44 13.888-160.992-49.76 40.864-106.304 64.608-166.656 64.608zM800 128c-64.576 0-120 91.872-145.312 224h81.312c71.744 0 128 70.24 128 160 0 89.696-56.256 160-128 160h-81.312c25.312 132.064 80.736 224 145.312 224 88.384 0 160-171.936 160-384s-71.616-384-160-384z" />
<glyph unicode="&#xe904;" glyph-name="nav_music" d="M1001.152 944.992c-11.616 9.76-26.176 15.008-41.12 15.008-3.68 0-7.424-0.32-11.136-0.992l-544.064-96c-30.592-5.376-52.864-31.936-52.864-63.008v-549.44c-32.48 23.552-74.624 37.44-121.408 37.44-27.2 0-54.4-4.512-80.928-13.312-60.736-20.256-109.44-60.864-133.632-111.488-18.688-39.136-21.088-81.696-6.848-119.872 24.352-65.216 93.536-107.328 176.256-107.328 27.2 0 54.4 4.448 80.896 13.312 60.704 20.192 109.408 60.8 133.6 111.36 10.4 21.824 15.264 44.672 15.456 67.328h0.576v512c3.68 0 7.424 0.32 11.136 0.928l532.96 94.048v-388.416c-32.512 23.552-74.624 37.44-121.44 37.44-27.2 0-54.432-4.512-80.928-13.312-60.736-20.256-109.44-60.864-133.568-111.488-18.688-39.136-21.12-81.696-6.88-119.872 24.384-65.216 93.504-107.328 176.256-107.328 27.2 0 54.432 4.448 80.928 13.312 60.672 20.192 109.376 60.8 133.568 111.36 10.432 21.824 15.264 44.672 15.488 67.328h0.576v672c0 18.88-8.384 36.864-22.88 48.992zM246.016 9.984c-76.672-25.568-155.936-0.576-176.928 55.68-21.056 56.32 24.032 122.688 100.672 148.256 76.672 25.568 155.936 0.64 176.928-55.68 21.088-56.288-24-122.688-100.672-148.256zM852.896 105.984c-76.736-25.568-156-0.576-176.992 55.68-21.056 56.32 24.064 122.688 100.672 148.256 76.736 25.568 156 0.64 176.992-55.68 21.088-56.288-23.968-122.688-100.672-148.256zM958.72 800l-544.064-96v96l544.064 96v-96z" />
<glyph unicode="&#xe905;" glyph-name="nav_sofa" d="M810.688 362.667c-1.088 0-2.176 0.085-3.264 0.256-11.648 1.792-19.627 12.693-17.835 24.341l39.957 259.755c10.411 67.755-9.195 136.448-53.824 188.459-44.651 52.032-109.568 81.856-178.112 81.856h-171.2c-68.544 0-133.461-29.824-178.112-81.877-44.629-52.011-64.256-120.704-53.824-188.459l39.957-259.755c1.792-11.648-6.208-22.549-17.835-24.341-11.627-1.664-22.549 6.187-24.32 17.835l-39.979 259.755c-12.331 80.085 10.88 161.28 63.616 222.741 52.736 61.504 129.451 96.768 210.475 96.768h171.2c81.024 0 157.739-35.264 210.475-96.747 52.757-61.483 75.947-142.677 63.616-222.741l-39.957-259.755c-1.6-10.539-10.688-18.091-21.035-18.091zM256-64c-11.776 0-21.333 9.536-21.333 21.333v42.667c0 11.797 9.557 21.333 21.333 21.333s21.333-9.536 21.333-21.333v-42.667c0-11.797-9.557-21.333-21.333-21.333zM768-64c-11.776 0-21.333 9.536-21.333 21.333v42.667c0 11.797 9.557 21.333 21.333 21.333s21.333-9.536 21.333-21.333v-42.667c0-11.797-9.557-21.333-21.333-21.333zM789.333-21.333h-554.667c-82.347 0-149.333 67.008-149.333 149.333v85.333c0 12.928-7.723 24.512-19.648 29.504-39.915 16.619-65.685 55.296-65.685 98.496 0 58.816 47.851 106.667 106.667 106.667 94.101 0 170.667-76.565 170.667-170.667v-31.168c37.781 13.504 110.869 31.168 234.667 31.168s196.885-17.664 234.667-31.168v31.168c0 94.101 76.565 170.667 170.667 170.667 58.816 0 106.667-47.851 106.667-106.667 0-43.221-25.771-81.899-65.685-98.496-11.925-4.992-19.648-16.576-19.648-29.504v-85.333c0-82.325-66.987-149.333-149.333-149.333zM106.667 405.333c-35.285 0-64-28.715-64-64 0-25.941 15.467-49.152 39.424-59.115 27.883-11.605 45.909-38.656 45.909-68.885v-85.333c0-58.816 47.851-106.667 106.667-106.667h554.667c58.816 0 106.667 47.851 106.667 106.667v85.333c0 30.208 18.027 57.259 45.909 68.885 23.957 9.963 39.424 33.173 39.424 59.115 0 35.285-28.715 64-64 64-70.592 0-128-57.408-128-128v-103.851l-33.173 22.101c-0.405 0.277-63.616 39.083-244.16 39.083s-243.755-38.805-244.373-39.211l-32.768-20.843-0.192 102.72c0 70.592-57.408 128-128 128zM618.667 512c-5.461 0-10.923 2.091-15.083 6.251l-42.667 42.667c-8.341 8.341-8.341 21.824 0 30.165l42.667 42.667c8.341 8.341 21.824 8.341 30.165 0s8.341-21.824 0-30.165l-27.584-27.584 27.584-27.584c8.341-8.341 8.341-21.824 0-30.165-4.16-4.16-9.621-6.251-15.083-6.251zM405.333 512c-5.461 0-10.923 2.091-15.083 6.251-8.341 8.341-8.341 21.824 0 30.165l27.584 27.584-27.584 27.584c-8.341 8.341-8.341 21.824 0 30.165s21.824 8.341 30.165 0l42.667-42.667c8.341-8.341 8.341-21.824 0-30.165l-42.667-42.667c-4.16-4.16-9.621-6.251-15.083-6.251zM512 490.667c-47.061 0-85.333 38.272-85.333 85.333s38.272 85.333 85.333 85.333 85.333-38.272 85.333-85.333-38.272-85.333-85.333-85.333zM512 618.667c-23.531 0-42.667-19.136-42.667-42.667s19.136-42.667 42.667-42.667 42.667 19.136 42.667 42.667-19.136 42.667-42.667 42.667z" />
<glyph unicode="&#xe906;" glyph-name="nav_store" d="M615.532 491.929c-56.477 0-111.901 43.929-125.502 73.204-6.274 13.601 0 28.233 13.601 34.507s28.233 0 34.507-13.601c5.232-10.453 41.834-41.834 77.394-41.834 40.792 0 76.341 27.191 89.942 46.013 5.232 6.274 13.601 10.453 21.959 10.453s16.738-4.179 20.917-11.506c9.411-13.601 44.971-42.876 93.079-42.876 39.739 0 85.752 24.054 85.752 57.519 0 7.316-1.042 12.548-5.232 23.012l-37.644 113.996h-346.167c-14.643 0-26.149 11.506-26.149 26.149s11.506 26.149 26.149 26.149h364.989c11.506 0 20.917-7.316 25.096-17.78l42.876-130.723c5.232-13.601 8.369-25.096 8.369-40.792 0-65.888-71.12-109.806-138.050-109.806-49.15 0-89.942 20.917-115.038 42.876-25.096-23.012-63.793-44.971-110.859-44.971zM409.51 490.876c-47.066 0-85.752 23.012-110.859 44.971-27.191-23.012-70.067-42.876-116.080-42.876-66.93 0-138.050 43.929-138.050 109.806 0 16.738 4.179 28.233 8.369 40.792l42.876 129.681c3.137 10.453 13.601 17.78 25.096 17.78h417.276c14.643 0 26.149-11.506 26.149-26.149s-11.506-26.149-26.149-26.149h-397.412l-37.644-112.943c-4.179-11.506-5.232-15.685-5.232-24.054 0-30.328 40.792-57.519 85.752-57.519 49.15 0 84.71 29.286 94.121 42.876 4.179 7.316 12.548 11.506 20.917 11.506s16.738-3.137 21.959-10.453c9.411-12.548 44.971-46.013 90.984-46.013 36.602 0 76.341 31.37 81.573 41.834 6.274 12.548 21.959 18.822 34.507 12.548s18.822-20.917 13.601-33.465c-15.685-28.233-75.299-72.162-131.776-72.162zM834.113 44.314h-637.941c-48.108 0-90.984 41.834-90.984 87.847v392.18c0 14.643 11.506 26.149 26.149 26.149s26.149-11.506 26.149-26.149v-392.18c0-17.78 19.875-35.56 38.697-35.56h637.941c18.822 0 36.602 17.78 36.602 35.56v379.632c0 14.643 11.506 26.149 26.149 26.149s26.149-11.506 26.149-26.149v-379.632c0-47.066-40.792-87.847-88.889-87.847zM791.226 73.6c-14.643 0-26.149 11.506-26.149 26.149v236.35c0 14.643-11.506 26.149-25.096 26.149h-60.656c-14.643 0-27.191-12.548-27.191-26.149v-236.35c0-14.643-11.506-26.149-26.149-26.149s-26.149 11.506-26.149 26.149v236.35c0 42.876 36.602 78.436 79.478 78.436h60.656c42.876 0 77.394-35.56 77.394-78.436v-236.35c0-14.643-11.506-26.149-26.149-26.149zM473.303 149.941h-212.296c-27.191 0-50.203 21.959-50.203 50.203v165.241c0 27.191 21.959 50.203 50.203 50.203h212.296c27.191 0 50.203-21.959 50.203-50.203v-165.241c-1.042-27.191-23.012-50.203-50.203-50.203zM263.102 202.239h207.075v160.009h-207.075v-160.009z" />
<glyph unicode="&#xe907;" glyph-name="nav_tag_line" d="M951.509 452.8l-486.315-486.315c-0.683-1.024-1.131-2.176-2.027-3.072-4.203-4.181-9.749-6.123-15.253-5.995-5.504-0.128-11.051 1.813-15.253 5.995-0.896 0.896-1.323 2.048-2.027 3.072l-357.568 357.568c-1.024 0.683-2.155 1.131-3.072 2.027-4.203 4.203-6.101 9.749-5.995 15.253-0.128 5.504 1.792 11.051 5.995 15.253 0.917 0.896 2.048 1.323 3.072 2.027l486.315 486.293c3.904 5.013 9.707 8.427 16.533 8.427h0.448c0.043 0 0.085 0 0.128 0h85.952c2.837 32.043 15.915 60.16 35.627 78.571l0.341-0.384c4.181 4.416 9.877 7.147 16.171 7.147 12.629 0 22.869-10.923 22.869-24.384 0-8-3.84-14.741-9.408-19.179-10.219-9.429-17.493-24.299-19.925-41.771h101.867c0.043 0 0.085 0 0.171 0h0.427c6.827 0 12.672-3.413 16.533-8.427l124.373-124.373c4.992-3.904 8.427-9.728 8.427-16.555v-0.448c0-0.043 0-0.085 0-0.128v-233.493c0-0.043 0-0.085 0-0.149v-0.427c0-6.827-3.413-12.651-8.405-16.533zM730.752 604.459c-4.117-4.395-9.835-7.125-16.171-7.125-12.629 0-22.827 10.923-22.827 24.384 0 8 3.84 14.741 9.408 19.2 5.291 4.885 9.621 11.456 13.163 18.837-18.24-4.864-31.744-21.333-31.744-41.067 0-23.552 19.115-42.667 42.667-42.667 23.573 0 42.667 19.115 42.667 42.667 0 10.091-3.627 19.221-9.493 26.539-13.12-33.003-27.669-40.768-27.669-40.768zM917.248 695.872l-114.795 114.795h-89.877c3.712-9.472 9.045-17.536 15.467-23.467v0c0.875-0.704 1.963-1.131 2.709-1.963l0.384 0.384c22.208-20.757 36.8-53.504 36.8-90.752 0-0.896-0.213-1.685-0.256-2.56 25.536-14.741 42.923-42.027 42.923-73.643 0-47.125-38.208-85.333-85.333-85.333s-85.333 38.208-85.333 85.333c0 45.803 36.16 82.88 81.493 84.949-1.92 18.944-9.408 35.157-20.245 45.184-0.875 0.704-1.963 1.131-2.752 1.963l-0.341-0.384c-15.872 14.827-27.584 35.947-33.131 60.288h-80.917l-469.333-469.333 333.205-333.205 469.333 469.333v218.411zM304.683 377.92c8.149 8.128 21.333 8.128 29.461 0l150.379-150.379c8.128-8.128 8.128-21.312 0-29.461-8.128-8.128-21.333-8.128-29.461 0l-150.379 150.379c-8.128 8.128-8.128 21.312 0 29.461zM390.016 463.253c8.149 8.128 21.333 8.128 29.461 0l150.357-150.379c8.128-8.128 8.128-21.312 0-29.461-8.128-8.128-21.333-8.128-29.461 0l-150.357 150.379c-8.128 8.128-8.128 21.312 0 29.461z" />
<glyph unicode="&#xe908;" glyph-name="nav_time" d="M300.373 174.933l-23.893-23.893c-10.24-10.24-10.24-27.307 0-37.547 3.413-6.827 10.24-6.827 17.067-6.827s13.653 0 20.48 6.827l23.893 23.893c10.24 10.24 10.24 27.307 0 37.547s-27.307 6.827-37.547 0zM238.933 372.907h-34.133c-13.653 0-27.307-10.24-27.307-27.307s10.24-27.307 27.307-27.307h34.133c13.653 0 27.307 10.24 27.307 27.307s-13.653 27.307-27.307 27.307zM512 598.187c13.653 0 27.307 10.24 27.307 27.307v34.133c0 13.653-10.24 27.307-27.307 27.307s-27.307-10.24-27.307-27.307v-34.133c0-17.067 13.653-27.307 27.307-27.307zM314.027 584.533c-10.24 10.24-27.307 10.24-37.547 0s-10.24-27.307 0-37.547l23.893-23.893c3.413-3.413 10.24-6.827 17.067-6.827s13.653 3.413 17.067 6.827c10.24 10.24 10.24 27.307 0 37.547l-20.48 23.893zM631.467 506.027l-112.64-109.227c-17.067 3.413-34.133 0-47.787-10.24-20.48-20.48-20.48-51.2 0-71.68s51.2-20.48 71.68 0c13.653 13.653 17.067 30.72 13.653 47.787l112.64 109.227c10.24 10.24 10.24 27.307 0 37.547-10.24 6.827-27.307 6.827-37.547-3.413zM539.307 758.613v20.48c37.547 10.24 68.267 47.787 68.267 88.747-3.413 47.787-44.373 92.16-95.573 92.16s-92.16-40.96-92.16-92.16c0-40.96 27.307-78.507 68.267-88.747v-20.48c-215.040-13.653-385.707-191.147-385.707-406.187 0-225.28 184.32-409.6 409.6-409.6s409.6 184.32 409.6 409.6c0 215.040-170.667 392.533-382.293 406.187zM471.040 864.427c0 23.893 17.067 40.96 40.96 40.96s40.96-17.067 40.96-40.96c0-20.48-17.067-40.96-40.96-40.96s-40.96 20.48-40.96 40.96zM512-5.973c-197.973 0-358.4 160.427-358.4 358.4s160.427 354.987 358.4 354.987 358.4-160.427 358.4-358.4-160.427-354.987-358.4-354.987zM512 99.84c-13.653 0-27.307-10.24-27.307-27.307v-34.133c0-13.653 10.24-27.307 27.307-27.307s27.307 10.24 27.307 27.307v34.133c0 17.067-13.653 27.307-27.307 27.307zM819.2 372.907h-34.133c-13.653 0-27.307-10.24-27.307-27.307s10.24-27.307 27.307-27.307h34.133c13.653 0 27.307 10.24 27.307 27.307s-13.653 27.307-27.307 27.307zM709.973 584.533l-23.893-23.893c-10.24-10.24-10.24-27.307 0-37.547 3.413-3.413 10.24-6.827 17.067-6.827s13.653 3.413 17.067 6.827l23.893 23.893c10.24 10.24 10.24 27.307 0 37.547-6.827 10.24-23.893 10.24-34.133 0zM723.627 174.933c-10.24 10.24-27.307 10.24-37.547 0s-10.24-27.307 0-37.547l23.893-23.893c6.827-6.827 13.653-6.827 20.48-6.827s13.653 3.413 17.067 6.827c10.24 10.24 10.24 27.307 0 37.547l-23.893 23.893z" />
<glyph unicode="&#xe909;" glyph-name="nav_art" d="M981.333 277.333v597.333c25.6 0 42.667 17.067 42.667 42.667s-17.067 42.667-42.667 42.667h-938.667c-25.6 0-42.667-17.067-42.667-42.667s17.067-42.667 42.667-42.667v-597.333c-25.6 0-42.667-17.067-42.667-42.667s17.067-42.667 42.667-42.667h345.6l-85.333-196.267c-8.533-21.333 0-46.933 21.333-55.467s46.933 0 55.467 21.333l98.133 230.4h64l98.133-230.4c8.533-21.333 34.133-29.867 55.467-21.333s29.867 34.133 21.333 55.467l-85.333 196.267h349.867c25.6 0 42.667 17.067 42.667 42.667s-17.067 42.667-42.667 42.667zM128 874.667h768v-490.667l-256 256-213.333-213.333-85.333 85.333-213.333-213.333v576zM170.667 277.333l170.667 170.667 85.333-85.333 213.333 213.333 256-256v-42.667h-725.333zM426.667 618.667c46.933 0 85.333 38.4 85.333 85.333s-38.4 85.333-85.333 85.333-85.333-38.4-85.333-85.333 38.4-85.333 85.333-85.333zM426.667 746.667c25.6 0 42.667-17.067 42.667-42.667s-17.067-42.667-42.667-42.667-42.667 17.067-42.667 42.667 17.067 42.667 42.667 42.667z" />
<glyph unicode="&#xe90a;" glyph-name="nav_book" d="M1005.568 690.352h-0.912c-17.504-0.112-20.208 15.136-20.512 22.176v110.544c0 11.776-9.584 21.344-21.344 21.344h-316.032c-79.312 0-108.88-29.376-116.224-38.624l-2.016-2.784-0.016-0.032-6.256-8.576c-0.016 0-0.016 0-0.016 0-8.384-11.536-15.696-6.608-19.216-2.848l-11.968 14.928-5.904 7.12c-9.952 10.448-35.872 30.832-87.232 30.832h-336.688c-11.792 0-21.36-9.568-21.36-21.344v-109.152c0-19.088-10.368-22.944-16.736-23.568h-4.752c-5.184-0.304-17.232-3.328-17.232-25.52v-520.080c0-12.768 10.352-23.104 23.104-23.104h307.28c98.032 0 140.752-36.992 153.568-51.152l7.312-9.056h0.016c0 0 19.6-22.16 40.256 0v0l4.304 5.040v-0.048l0.048 0.048 5.456 6.4c0.16 0.192 1.488 1.664 3.376 3.616 16.384 15.92 57.264 45.152 137.2 45.152h316.672c12.768 0 23.088 10.336 23.088 23.104v525.12c0.016 18.784-13.632 20.368-17.264 20.464zM936.528 226.352c0-10.24-8.56-18.544-19.216-18.544h-260.528c-92.72 0-126.384-41.856-126.384-41.856l-4.272-5.728-2-2.8c-0.016 0-0.016 0-0.016 0-8.848-12-21.84-0.096-21.904 0l-6 7.488c-4.448 5.328-38.512 42.912-120.928 42.912h-268.64c-10.608 0-19.168 8.32-19.168 18.544v554.24c0 10.24 8.576 18.512 19.168 18.512h208.544c155.136 0 169.824-88.112 170.832-113.696v-385.472c0-28.016 13.344-33.248 20.88-34.016h11.216c7.664 0.768 19.872 5.328 19.872 27.152v397.28h-0.144c1.184 32.048 13.664 108.752 106.976 108.752h272.496c10.656 0 19.216-8.272 19.216-18.512v-554.256z" />
<glyph unicode="&#xe90b;" glyph-name="nav_football" d="M512 789.333c187.733 0 341.333-153.6 341.333-341.333s-153.6-341.333-341.333-341.333c-187.733 0-341.333 153.6-341.333 341.333s153.6 341.333 341.333 341.333zM512 874.667c-234.667 0-426.667-192-426.667-426.667s192-426.667 426.667-426.667c234.667 0 426.667 192 426.667 426.667s-192 426.667-426.667 426.667v0zM409.6 285.867l-68.267 200.533 170.667 123.733 170.667-123.733-68.267-200.533zM593.067 857.6l51.2-89.6-132.267-55.467-132.267 55.467 51.2 89.6zM149.333 652.8l102.4 17.067 8.533-140.8-93.867-106.667-68.267 76.8zM204.8 166.4l12.8 102.4 140.8-34.133 72.533-123.733-93.867-42.667zM686.933 68.267l-93.867 42.667 72.533 123.733 140.8 34.133 12.8-102.4zM925.867 499.2l-68.267-76.8-93.867 106.667 8.533 140.8 102.4-17.067z" />
<glyph unicode="&#xe90c;" glyph-name="nav_heart" d="M699.733 704c85.333 0 153.6-68.267 153.6-153.6s-166.4-273.067-341.333-418.133c-174.933 149.333-341.333 337.067-341.333 418.133 0 85.333 68.267 153.6 153.6 153.6 102.4 0 187.733-128 187.733-128s81.067 128 187.733 128zM699.733 789.333c-76.8 0-145.067-38.4-187.733-98.133-42.667 59.733-110.933 98.133-187.733 98.133-132.267 0-238.933-106.667-238.933-238.933 0-187.733 426.667-529.067 426.667-529.067s426.667 341.333 426.667 529.067c0 132.267-106.667 238.933-238.933 238.933v0z" />
<glyph unicode="&#xe90d;" glyph-name="nav_hotel" d="M981.333 576c-25.6 0-42.667-17.067-42.667-42.667v-128h-853.333v128c0 25.6-17.067 42.667-42.667 42.667s-42.667-17.067-42.667-42.667v-554.667c0-21.333 17.067-42.667 42.667-42.667v0c21.333 0 42.667 17.067 42.667 42.667v213.333h853.333v-213.333c0-21.333 17.067-42.667 42.667-42.667v0c21.333 0 42.667 17.067 42.667 42.667v554.667c0 25.6-17.067 42.667-42.667 42.667zM938.667 320v-42.667h-853.333v85.333h853.333v-42.667zM341.333 618.667c64 0 123.733-21.333 170.667-55.467 46.933 34.133 106.667 55.467 170.667 55.467 81.067 0 153.6-34.133 209.067-85.333h4.267v213.333c0 25.6-17.067 42.667-42.667 42.667s-42.667-17.067-42.667-42.667v-85.333h-597.333v85.333c0 25.6-17.067 42.667-42.667 42.667s-42.667-17.067-42.667-42.667v-213.333h4.267c55.467 51.2 128 85.333 209.067 85.333z" />
<glyph unicode="&#xe90e;" glyph-name="nav_pin_o" d="M713.299 581.024c0 106.229-86.47 192.656-192.71 192.656s-192.71-86.427-192.71-192.656c0-106.252 86.47-192.722 192.71-192.722s192.71 86.47 192.71 192.722zM386.067 581.024c0 74.147 60.352 134.467 134.522 134.467s134.511-60.309 134.511-134.467c0-74.17-60.341-134.522-134.511-134.522s-134.522 60.352-134.522 134.522zM520.545-28.257l20.967 21.757c14.663 15.266 359.622 375.603 359.622 579.11 0 209.845-170.723 380.568-380.556 380.568-209.801 0-380.502-170.723-380.502-380.568 0-203.507 344.893-563.844 359.567-579.099l20.923-21.768zM520.545 894.967c177.763 0 322.389-144.626 322.389-322.389 0-139.552-215.973-401.644-322.389-516.539-106.405 114.873-322.334 376.866-322.334 516.539 0 177.763 144.594 322.389 322.334 322.389z" />
<glyph unicode="&#xe90f;" glyph-name="nav_pin" d="M688.895 594.095c0-101.004-82.284-182.949-183.787-182.949-101.517 0-183.787 81.945-183.787 182.949 0 101.033 82.284 182.949 183.787 182.949 101.524 0.007 183.787-81.909 183.787-182.949zM879.581 594.095c0 202.088-164.562 365.905-367.581 365.905-203.005 0-367.581-163.817-367.581-365.905 0-88.852 31.847-170.32 84.77-233.689l283.13-406.639 287.269 412.571c10.317 12.853 19.767 26.4 28.293 40.64l2.904 4.147h-0.477c31.284 53.854 49.274 116.292 49.274 182.971z" />
<glyph unicode="&#xe911;" glyph-name="nav_restaurant" d="M895.712 392.896h-775.744c-35.296 0-41.152-22.528-41.664-35.664 17.488-234.352 204.784-419.072 433.696-419.072 225.36 0 410.752 178.848 433.184 407.952 0.048 0.368 0.048 0.704 0.096 1.072 0.256 2.88 0.208 5.824 0.4 8.736-1.344 32.928-37.648 36.672-49.968 36.976zM369.904 690.624c6.704-1.696 13.664-2.832 20.832-3.248v-0.448l4.656-0.016c0.608 0 1.152-0.192 1.744-0.192 0.608 0 1.2 0.16 1.808 0.192l13.168-0.064v-0.096l231.36 0.032c31.072 0 44.448-8.336 50.064-13.92 3.36-7.008 5.408-14.784 5.408-23.072 0-18.352-9.264-34.528-23.28-44.192-0.304-0.256-0.704-0.4-0.96-0.624-1.84-1.2-3.792-2.16-5.808-3.136-12.512-5.024-32.032-4.976-32.032-4.976l-251.872 0.016c0 0-18.016 0.256-35.392-5.072-0.448-0.16-0.896-0.304-1.392-0.48-1.808-0.56-3.6-1.216-5.408-1.936-9.216-3.84-18.624-9.584-26.832-18.336-0.208-0.208-0.4-0.368-0.608-0.56-0.256-0.256-0.496-0.384-0.704-0.64-0.256-0.288-0.304-0.416-0.496-0.704-16.672-16.272-27.104-38.8-27.104-63.968 0-5.872 0.768-11.52 2-16.992 1.408-5.056 6.352-16.688 23.232-16.752h7.76c18.832 0.416 23.632 35.008 23.632 35.008l0.144-0.016c1.104 4.048 2.752 7.872 5.008 11.312 0.096 0.144 0.144 0.272 0.304 0.448 0.256 0.336 0.544 0.624 0.8 0.976 4.608 5.44 17.584 15.392 51.472 15.392l244.528 0.128c0.64-0.016 1.2-0.176 1.792-0.176s1.2 0.176 1.792 0.176l4.608 0.032v0.448c7.152 0.416 14.176 1.552 20.88 3.248 49.472 9.92 86.768 53.552 86.768 105.936 0 16.16-3.792 31.328-10.16 45.008-4.704 12.096-11.712 23.024-20.88 31.968-0.208 0.288-0.256 0.416-0.496 0.704-0.208 0.256-0.448 0.4-0.704 0.656-0.208 0.176-0.4 0.336-0.608 0.544-3.552 3.776-7.36 6.768-11.264 9.52-1.184 0.88-2.384 1.712-3.648 2.496-2.864 1.776-5.76 3.232-8.624 4.56-27.936 12.16-65.648 9.232-65.648 9.232h-231.68c0 0-19.536-0.048-32.096 4.992-1.952 0.976-3.968 1.92-5.76 3.12-0.304 0.224-0.704 0.368-0.96 0.624-14.064 9.664-23.28 25.824-23.28 44.192 0 29.648 24.032 53.664 53.664 53.664h133.376c46.112 0 54.416 33.6 55.872 48.992v36.624c0 14.096-10.272 16.336-11.808 16.592-15.024-0.448-39.056-4.208-39.056-24.208 0-4.736 0-8.432 0-11.744-0.48-6.032-4.144-17.248-24.416-17.248h-121.616c-0.192-0.016-0.448-0.016-0.656-0.016-0.048 0-0.096 0.016-0.144 0.016-0.256 0-0.448-0.080-0.704-0.080-7.568-0.384-14.768-1.056-20.88-2.096-0.096-0.032-0.208-0.032-0.304-0.048-4.304-0.752-8-1.664-10.768-2.816-0.944-0.384-1.552-0.8-2.096-1.2-42.56-14.512-73.344-54.384-73.344-101.824 0-52.4 37.296-96.032 86.816-105.952z" />
<glyph unicode="&#xe912;" glyph-name="nav_sevice" d="M896 600.8c0 0.6 0 1.4 0 2 0 71.8-56.8 130.4-128 133.4v15.8c3.6 2 6.2 5.8 6.2 10.2 0 6.4-5.2 11.6-11.6 11.6s-11.6-5.2-11.6-11.6c0-4.4 2.4-8.4 6.2-10.2v-15.8c-71.2-2.8-128-61.4-128-133.4 0-0.6 0-1.4 0-2h266.8zM950.4 558.2c2 1.8 3.4 4.6 3.4 7.6 0 5.6-4.6 10.2-10.2 10.2h-36.2v17.2h-289.4v-17.2h-36.2c-5.6 0-10.2-4.6-10.2-10.2 0-3 1.4-5.8 3.4-7.6h-145v63h-52.4c0.6 4.8 1 9.8 1 14.6 0 63.2-51.2 114.6-114.6 114.6-63.2 0-114.6-51.2-114.6-114.6 0-5 0.4-9.8 1-14.6h-52.4v-63h-86v-97.4h15.4v-338.6l29 5.2 60 333.4h790.8l60-333.4 29-5.2v338.6h15.4v97.4h-61.2zM328.8 609.4c-3.6-8.4-8.6-16-15.2-22.4s-14-11.6-22.4-15.2c-8.6-3.6-18-5.6-27.4-5.6-9.6 0-18.8 1.8-27.4 5.6-8.4 3.6-16 8.6-22.4 15.2-6.4 6.4-11.6 14-15.2 22.4-3.6 8.6-5.6 18-5.6 27.4s1.8 18.8 5.6 27.4c3.6 8.4 8.6 16 15.2 22.4 6.4 6.4 14 11.6 22.4 15.2 8.6 3.6 18 5.6 27.4 5.6 9.6 0 18.8-1.8 27.4-5.6 8.4-3.6 16-8.6 22.4-15.2s11.6-14 15.2-22.4c3.6-8.6 5.6-18 5.6-27.4s-1.8-18.8-5.6-27.4zM264 696.2c-32.8 0-59.4-26.6-59.4-59.4s26.6-59.4 59.4-59.4c32.8 0 59.4 26.6 59.4 59.4s-26.6 59.4-59.4 59.4zM262 691.4c0 0.8 0.6 1.4 1.4 1.4h1c0.8 0 1.4-0.6 1.4-1.4v-10.4c0-0.8-0.6-1.4-1.4-1.4h-1c-0.8 0-1.4 0.6-1.4 1.4v10.4zM208 636.2v1c0 0.8 0.6 1.4 1.4 1.4h10.4c0.8 0 1.4-0.6 1.4-1.4v-1c0-0.8-0.6-1.4-1.4-1.4h-10.4c-0.8 0-1.4 0.6-1.4 1.4zM226 613.6l-8.6-5c-0.4-0.2-0.8 0-1 0.2l-0.2 0.4c-0.2 0.4 0 0.8 0.2 1l8.6 5c0.4 0.2 0.8 0 1-0.2l0.2-0.4c0.4-0.2 0.2-0.8-0.2-1zM226.4 658.8l-0.2-0.4c-0.2-0.4-0.8-0.6-1-0.2l-8.6 5c-0.4 0.2-0.6 0.8-0.2 1l0.2 0.4c0.2 0.4 0.8 0.6 1 0.2l8.6-5c0.2-0.2 0.4-0.6 0.2-1zM242.6 597.8l-5-8.6c-0.2-0.4-0.8-0.6-1-0.2l-0.4 0.2c-0.4 0.2-0.6 0.8-0.2 1l5 8.6c0.2 0.4 0.8 0.6 1 0.2l0.4-0.2c0.4-0.2 0.4-0.6 0.2-1zM242.4 674.6l-0.4-0.2c-0.4-0.2-0.8 0-1 0.2l-5 8.6c-0.2 0.4 0 0.8 0.2 1l0.4 0.2c0.4 0.2 0.8 0 1-0.2l5-8.6c0.2-0.2 0.2-0.6-0.2-1zM265.8 582.2c0-0.8-0.6-1.4-1.4-1.4h-1c-0.8 0-1.4 0.6-1.4 1.4v10.4c0 0.8 0.6 1.4 1.4 1.4h1c0.8 0 1.4-0.6 1.4-1.4v-10.4zM264 629.2c-0.2 0-0.4 0-0.4 0l-9.2-21.8-3.4-2-1 3.8 9.2 21.8c-1.6 1.4-2.6 3.4-2.6 5.8s1.2 4.6 3 6l-11.6 37.2 0.8 5.4 3.8-4 11.2-37c0 0 0 0 0 0 4.2 0 7.6-3.4 7.6-7.6 0.2-4.2-3.2-7.6-7.4-7.6zM291.8 589.2l-0.4-0.2c-0.4-0.2-0.8 0-1 0.2l-5 8.6c-0.2 0.4 0 0.8 0.2 1l0.4 0.2c0.4 0.2 0.8 0 1-0.2l5-8.6c0.2-0.4 0.2-0.8-0.2-1zM292 683.2l-5-8.6c-0.2-0.4-0.8-0.6-1-0.2l-0.4 0.2c-0.4 0.2-0.6 0.8-0.2 1l5 8.6c0.2 0.4 0.8 0.6 1 0.2l0.4-0.2c0.4 0 0.4-0.6 0.2-1zM311.8 609.4l-0.2-0.4c-0.2-0.4-0.8-0.6-1-0.2l-8.6 5c-0.4 0.2-0.6 0.8-0.2 1l0.2 0.4c0.2 0.4 0.8 0.6 1 0.2l8.6-5c0.2 0 0.4-0.6 0.2-1zM320 637.2v-1c0-0.8-0.6-1.4-1.4-1.4h-10.4c-0.8 0-1.4 0.6-1.4 1.4v1c0 0.8 0.6 1.4 1.4 1.4h10.4c0.6 0.2 1.4-0.6 1.4-1.4zM311.6 664.6l0.2-0.4c0.2-0.4 0-0.8-0.2-1l-8.6-5c-0.4-0.2-0.8 0-1 0.2l-0.2 0.4c-0.2 0.4 0 0.8 0.2 1l8.6 5c0.2 0.2 0.6 0.2 1-0.2z" />
<glyph unicode="&#xe913;" glyph-name="nav_shopping_bag" horiz-adv-x="898" d="M898.221 31.294l-30.591 690.855c-0.54 51.002-42.419 92.374-93.816 92.374h-155.5c-12.619 81.401-83.727 145.477-169.29 145.477-85.586 0-156.714-64.076-169.337-145.477h-155.286c-51.383 0-93.248-41.373-93.787-92.376l-30.574-690.83c-0.025-0.586-0.039-1.181-0.039-1.769 0-51.58 42.085-93.548 93.817-93.548h710.631c51.729 0 93.813 41.956 93.813 93.537-0.001 0.587-0.013 1.17-0.040 1.757zM449.023 880.323c41.452 0 76.541-27.812 87.802-65.799h-175.649c11.267 37.986 46.374 65.799 87.847 65.799zM804.447 15.592h-710.63c-7.725 0-13.818 5.816-14.128 13.303l30.555 690.426c0.026 0.585 0.039 1.273 0.039 1.86 0 7.655 6.2 13.751 14.117 13.751h152.966v-145.592c0-22.002 17.794-39.838 39.796-39.838s39.796 17.836 39.796 39.838v145.592h183.302v-145.592c0-22.002 17.794-39.838 39.796-39.838s39.796 17.836 39.796 39.838v145.592h153.963c7.931 0 14.144-6.087 14.144-13.742 0-0.587 0.013-1.22 0.039-1.808l30.574-690.468c-0.309-7.485-6.402-13.323-14.123-13.323z" />
<glyph unicode="&#xe914;" glyph-name="nav_tag" d="M989.867 832h-439.467l-529.067-524.8c-17.067-17.067-12.8-38.4 4.267-55.467l302.933-302.933c17.067-17.067 42.667-17.067 59.733 0l25.6 29.867 29.867-29.867c17.067-17.067 38.4-17.067 55.467 0l524.8 529.067v320c0 21.333-8.533 34.133-34.133 34.133zM354.133-21.333l-302.933 302.933 512 507.733h59.733l-477.867-477.867c-17.067-17.067-17.067-42.667 0-59.733l238.933-243.2-29.867-29.867zM938.667 512l-469.333-473.6-238.933 238.933 477.867 469.333h230.4v-234.667zM768 490.667c46.933 0 85.333 38.4 85.333 85.333s-38.4 85.333-85.333 85.333-85.333-38.4-85.333-85.333 38.4-85.333 85.333-85.333zM768 618.667c25.6 0 42.667-17.067 42.667-42.667s-17.067-42.667-42.667-42.667-42.667 17.067-42.667 42.667 17.067 42.667 42.667 42.667zM477.745 135.317l-150.848 150.848 30.17 30.17 150.848-150.848-30.17-30.17zM538.929 195.652l-150.848 150.848 30.17 30.17 150.848-150.848-30.17-30.17z" />
<glyph unicode="&#xe915;" glyph-name="nav_travel" d="M866.637 892.944c-33.322 0-67.371-14.186-90.995-37.849l-160.7-160.328-304.604 113.841-6.585 1.9c-13.188 3.439-28.123 7.364-44.559 7.364-28.236 0-53.535-11.598-77.367-35.509-52.396-52.559-52.396-105.806 0-158.326l198.848-163-111.056-110.841-118.515 29.634c-29.172 7.426-52.435 1.398-70.669-18.713l-2.21-2.21c-9.636-9.326-29.634-28.772-29.86-55.294-0.073-10.075 2.813-25.062 17.010-39.31l173.262-102.953 98.77-167.838 4.189-5.401c11.474-11.513 24.436-17.36 38.56-17.36 23.359 0 42.174 16.063 59.895 32.921 24.312 24.312 19.948 44.857 15.697 64.721l-28.022 123.567 110.441 110.819 162.69-198.808c26.161-26.184 53.196-39.496 80.395-39.496v0c38.272 0 63.96 25.648 77.807 39.496 47.423 47.558 36.237 90.595 28.022 122.028l-114.743 311.775 160.074 160.615c41.847 41.959 55.395 118.143 8.875 164.776-19.147 19.238-45.647 29.798-74.633 29.798zM219.321 663.283c-39.496 40.223-18.95 60.859 0.925 80.767 17.287 17.337 29.911 19.548 38.949 19.548 9.461 0 19.835-2.751 30.796-5.587l282.716-105.417-153.201-153.212-200.184 163.902zM833.862 215.030l0.71-2.712c7.2-27.712 11.575-44.446-13.96-70.043-9.951-9.912-23.562-23.534-39.372-23.534-12.274 0-26.387 7.91-40.183 21.572l-164.675 201.487 153.714 153.714 103.765-280.467zM893.96 736.664l-173.025-173.623-202.287-202.287 0.338-0.338-150.799-151.341 33.372-146.689 1.111-5.26c0.998-4.714 2.238-10.538 2.537-10.949-0.040-0.040-0.699-1.274-3.050-3.648-11.739-11.164-17.738-15.313-20.737-16.813l-103.157 175.235-175.337 103.219c0.964 2.486 4.15 7.138 13.086 15.798 2.836 2.774 4.973 5.012 5.074 5.238 4.11 4.449 7.826 4.251 16.65 2.002l148.488-37.099 148.837 148.538 0.237-0.226 205.636 205.648 173.036 172.585c13.723 13.774 33.423 21.972 52.661 21.972 10.222 0 24.825-2.402 36.237-13.836 23.246-23.325 13.988-65.183-8.925-88.142z" />
</font>
</defs>
</svg>
